<svg width="128" height="128" viewBox="0 0 128 128" fill="none" xmlns="http://www.w3.org/2000/svg">
  <rect width="128" height="128" rx="32" fill="black" />
  <path
    d="M92 44V32C92 30.9391 91.5786 29.9217 90.8284 29.1716C90.0783 28.4214 89.0609 28 88 28H36C33.8783 28 31.8434 28.8429 30.3431 30.3431C28.8429 31.8434 28 33.8783 28 36C28 38.1217 28.8429 40.1566 30.3431 41.6569C31.8434 43.1571 33.8783 44 36 44H96C97.0609 44 98.0783 44.4214 98.8284 45.1716C99.5786 45.9217 100 46.9391 100 48V64M100 64H88C85.8783 64 83.8434 64.8429 82.3431 66.3431C80.8429 67.8434 80 69.8783 80 72C80 74.1217 80.8429 76.1566 82.3431 77.6569C83.8434 79.1571 85.8783 80 88 80H100C101.061 80 102.078 79.5786 102.828 78.8284C103.579 78.0783 104 77.0609 104 76V68C104 66.9391 103.579 65.9217 102.828 65.1716C102.078 64.4214 101.061 64 100 64Z"
    stroke="#FF7DCB" stroke-width="8" stroke-linecap="round" stroke-linejoin="round" />
  <path
    d="M28 36V92C28 94.1217 28.8429 96.1566 30.3431 97.6569C31.8434 99.1571 33.8783 100 36 100H96C97.0609 100 98.0783 99.5786 98.8284 98.8284C99.5786 98.0783 100 97.0609 100 96V80"
    stroke="#FF7DCB" stroke-width="8" stroke-linecap="round" stroke-linejoin="round" />
</svg>
  